<svg fill="none" height="20" viewBox="0 0 25 20" width="25" xmlns="http://www.w3.org/2000/svg"><path d="m12.4999 15.6251c-2.96288 0-5.36131-2.2934-5.58202-5.1996l-4.09765-3.1668c-.53867.67578-1.03438 1.39023-1.43438 2.17148-.08936.17676-.13591.37205-.13591.57012 0 .1981.04655.3934.13591.5701 2.11836 4.1332 6.31211 6.9297 11.11405 6.9297 1.0512 0 2.0653-.1562 3.0426-.4086l-2.027-1.5684c-.3347.0647-.6747.0988-1.0156.102zm12.2586 2.2695-4.3183-3.3375c1.3117-1.1055 2.3906-2.4608 3.1738-3.9871.0893-.1767.1359-.372.1359-.57009 0-.19807-.0466-.39336-.1359-.57012-2.1184-4.1332-6.3121-6.92969-11.1141-6.92969-2.0111.00244-3.98959.50874-5.75467 1.47266l-4.96953-3.841017c-.06481-.0504266-.13891-.0875895-.21808-.109365-.07918-.02177555-.16186-.0277368-.24334-.01754315s-.16015.03634245-.23151.07695205c-.07137.0406091-.134034.0948841-.184417.1597221l-.766797.987111c-.1017192.13085-.147299.29675-.12671455.4612.02058445.16446.10564755.31401.23648055.41575l22.982778 17.76293c.0648.0504.1389.0876.2181.1093.0792.0218.1619.0278.2434.0176.0814-.0102.1601-.0364.2315-.077.0713-.0406.134-.0949.1844-.1597l.7672-.9871c.1016-.1309.1472-.2968.1265-.4613s-.1058-.314-.2367-.4157zm-7.1766-5.5468-1.5351-1.1868c.1293-.3736.1978-.7656.2031-1.1609.0076-.5788-.1206-1.15133-.3744-1.67158-.2538-.52026-.626-.97375-1.0869-1.32404-.4608-.35029-.9974-.58761-1.5665-.69292-.5692-.1053-1.1552-.07565-1.7109.08659.2356.31918.363.70527.3637 1.10195-.0058.13201-.026.26299-.0601.39063l-2.87543-2.22227c.99882-.83468 2.25883-1.2924 3.56053-1.29336.7388-.00041 1.4705.14481 2.1531.42734.6826.28254 1.3029.69686 1.8253 1.21927s.9367 1.14267 1.2193 1.82531c.2825.68264.4277 1.41428.4273 2.15308 0 .8449-.2066 1.6324-.543 2.348z" fill="#30332e"/></svg>