<svg fill="none" height="43" viewBox="0 0 98 43" width="98" xmlns="http://www.w3.org/2000/svg"><ellipse cx="21.5" cy="20.5" fill="#343957" rx="21.5" ry="19.5"/><path d="m24.672 34c-.24 0-.444-.084-.612-.252s-.252-.372-.252-.612v-23.436c0-.264.072-.48.216-.648.168-.168.384-.252.648-.252h9.648c2.88 0 5.148.684 6.804 2.052 1.656 1.344 2.484 3.324 2.484 5.94s-.828 4.596-2.484 5.94c-1.632 1.32-3.9 1.98-6.804 1.98h-5.364v8.424c0 .24-.084.444-.252.612-.144.168-.348.252-.612.252zm9.468-13.284c1.392 0 2.46-.324 3.204-.972.744-.672 1.116-1.656 1.116-2.952 0-1.248-.36-2.22-1.08-2.916-.72-.72-1.8-1.08-3.24-1.08h-5.256v7.92z" fill="#fff"/><path d="m48.4385 34c-.264 0-.48-.072-.648-.216-.168-.168-.252-.384-.252-.648v-23.436c0-.264.084-.48.252-.648s.384-.252.648-.252h2.844c.504 0 .864.228 1.08.684l6.948 12.96 7.02-12.96c.24-.456.6-.684 1.08-.684h2.808c.264 0 .48.084.648.252s.252.384.252.648v23.436c0 .264-.084.48-.252.648-.168.144-.384.216-.648.216h-3.024c-.24 0-.444-.084-.612-.252s-.252-.372-.252-.612v-15.588l-5.04 9.612c-.312.528-.72.792-1.224.792h-1.476c-.504 0-.912-.264-1.224-.792l-5.04-9.612v15.588c0 .24-.084.444-.252.612-.144.168-.348.252-.612.252zm37.0277.36c-2.136 0-3.972-.324-5.508-.972s-2.7-1.5-3.492-2.556-1.212-2.196-1.26-3.42c0-.216.072-.396.216-.54s.324-.216.54-.216h3.204c.288 0 .504.06.648.18.168.096.324.264.468.504.24.816.792 1.5 1.656 2.052s2.04.828 3.528.828c1.704 0 2.988-.276 3.852-.828.864-.576 1.296-1.368 1.296-2.376 0-.672-.228-1.224-.684-1.656-.432-.432-1.092-.804-1.98-1.116-.864-.312-2.16-.696-3.888-1.152-2.832-.672-4.908-1.56-6.228-2.664-1.296-1.128-1.944-2.724-1.944-4.788 0-1.392.372-2.628 1.116-3.708.768-1.08 1.86-1.932 3.276-2.556 1.44-.624 3.108-.936 5.004-.936 1.968 0 3.672.348 5.112 1.044s2.532 1.572 3.276 2.628c.768 1.032 1.176 2.064 1.224 3.096 0 .216-.072.396-.216.54s-.324.216-.54.216h-3.348c-.504 0-.852-.228-1.044-.684-.144-.768-.624-1.404-1.44-1.908-.816-.528-1.824-.792-3.024-.792-1.344 0-2.4.252-3.168.756s-1.152 1.236-1.152 2.196c0 .672.192 1.224.576 1.656s.984.816 1.8 1.152c.84.336 2.04.708 3.6 1.116 2.112.48 3.792 1.02 5.04 1.62 1.272.6 2.208 1.356 2.808 2.268s.9 2.076.9 3.492c0 1.536-.432 2.88-1.296 4.032-.84 1.128-2.04 1.992-3.6 2.592-1.536.6-3.312.9-5.328.9z" fill="#343957"/></svg>